<svg width="920" height="40" viewBox="0 0 920 40" fill="none" xmlns="http://www.w3.org/2000/svg">
<rect x="5" y="19" width="915" height="2" fill="#72828E"/>
<circle cx="5" cy="20" r="5" fill="#FFEE2E"/>
<circle cx="135" cy="20" r="5" fill="#FFEE2E"/>
<circle cx="265" cy="20" r="5" fill="#FFEE2E"/>
<circle cx="395" cy="20" r="5" fill="#FFEE2E"/>
<circle cx="525" cy="19" r="5" fill="#FFEE2E"/>
<circle cx="655" cy="21" r="5" fill="#FFEE2E"/>
<circle cx="785" cy="20" r="5" fill="#FFEE2E"/>
<circle cx="915" cy="20" r="5" fill="#FFEE2E"/>
<path fill-rule="evenodd" clip-rule="evenodd" d="M276.477 19.9999C276.477 26.3438 271.344 31.4769 265 31.4769C258.657 31.4769 253.523 26.3438 253.523 19.9999C253.523 13.6561 258.657 8.52295 265 8.52295C271.344 8.52295 276.477 13.6561 276.477 19.9999ZM265 10.3147C270.376 10.3147 274.734 14.6246 274.734 19.9999C274.734 25.3752 270.376 29.7336 265 29.7336C259.625 29.7336 255.315 25.3752 255.315 19.9999C255.315 14.6246 259.625 10.3147 265 10.3147Z" fill="#FE9013"/>
<path fill-rule="evenodd" clip-rule="evenodd" d="M265 0C276.041 0 285 8.95884 285 20C285 31.0412 276.041 40 265 40C253.959 40 245 31.0412 245 20C245 8.95884 253.959 0 265 0ZM265 1.79177C275.073 1.79177 283.257 9.92736 283.257 20C283.257 30.0726 275.073 38.2567 265 38.2567C254.927 38.2567 246.792 30.0726 246.792 20C246.792 9.92736 254.927 1.79177 265 1.79177Z" fill="#FE9013"/>
</svg>
