<svg width="44" height="30" viewBox="0 0 44 30" fill="none" xmlns="http://www.w3.org/2000/svg">
<path fill-rule="evenodd" clip-rule="evenodd" d="M8.1024 4.98763C8.00702 5.07187 7.91175 5.15603 7.81851 5.24233C7.60292 5.4375 7.39096 5.63575 7.18252 5.83643C5.38677 7.56574 3.78778 9.54369 2.63884 11.7566C1.48838 13.9723 0.804768 16.4212 0.868614 18.8281C0.897455 19.9138 1.08239 21.0666 1.71909 22.0344C1.82876 22.2012 1.95178 22.3607 2.0875 22.5105L4.38682 25.0916C4.64861 25.3855 4.96128 25.6409 5.32371 25.8383C5.86836 26.1349 6.51433 26.2899 7.19898 26.2324C7.79232 26.1825 8.35033 25.9796 8.84555 25.7117C9.33846 25.4451 9.76669 25.1174 10.153 24.787C10.9249 24.127 11.5509 23.46 12.2157 23.028C13.4032 22.2563 14.9418 22.0344 16.4925 21.9976C18.0522 21.9606 19.7259 22.0837 21.483 21.6704C23.6211 21.1675 25.6032 19.8826 27.0106 18.1526C28.4164 16.4246 29.2196 14.3012 29.3176 12.2136C29.4205 10.02 28.7455 7.89794 27.423 6.2758C27.347 6.18257 27.2683 6.09177 27.1882 6.00227L24.8889 3.42128C23.5758 1.94226 21.7291 0.955351 19.68 0.651562C17.419 0.316373 15.0302 0.813795 12.8853 1.80006C11.1303 2.60705 9.53915 3.72572 8.10367 4.98791L8.1024 4.98763ZM9.1015 6.03905C9.20299 5.94941 9.30639 5.86201 9.40946 5.77453C10.6486 4.72737 11.985 3.8224 13.4116 3.16641C15.3084 2.29421 17.3912 1.87562 19.2886 2.1569C21.0997 2.4254 22.7523 3.34853 23.8593 4.70642C24.9665 6.06443 25.5422 7.87325 25.4559 9.71169C25.3738 11.4604 24.6898 13.2579 23.5279 14.6862C22.3676 16.1125 20.7063 17.1847 18.9668 17.5939C17.5246 17.9331 15.9648 17.8388 14.3094 17.878C12.6447 17.9175 10.7817 18.1269 9.1489 19.1879C8.23349 19.7828 7.56023 20.5212 6.89682 21.0886C6.56549 21.3718 6.23537 21.6182 5.90221 21.7984C5.57133 21.9774 5.23109 22.092 4.92069 22.1181C4.56531 22.1479 4.18977 22.0647 3.86887 21.8899C3.54535 21.7137 3.26249 21.4412 3.04645 21.1128C2.61196 20.4524 2.44167 19.5637 2.41671 18.6231C2.36092 16.5213 2.9632 14.329 4.00304 12.3263C5.04431 10.3208 6.51728 8.48842 8.20299 6.86507C8.4964 6.58262 8.79584 6.30666 9.1015 6.03905ZM10.015 7.07543C9.7303 7.32295 9.45151 7.58144 9.17649 7.84645C7.59573 9.36874 6.24295 11.0624 5.30427 12.8702C4.36996 14.6697 3.84521 16.6174 3.89326 18.4282C3.91454 19.2306 4.07099 19.8673 4.31264 20.2345C4.42993 20.4129 4.57288 20.5386 4.68821 20.6014C4.79584 20.66 4.91345 20.675 4.95481 20.6715C4.9959 20.668 5.12854 20.6375 5.30241 20.5435C5.48297 20.4458 5.7196 20.2773 5.99856 20.0387C6.55871 19.5597 7.27684 18.7532 8.43109 18.0031C10.4883 16.6662 12.6609 16.4687 14.4343 16.4266C16.181 16.3852 17.6324 16.4522 18.7742 16.1836C20.1337 15.8639 21.489 14.9942 22.4137 13.8576C23.3433 12.7149 23.9136 11.2281 23.9805 9.80255C24.0509 8.30276 23.5697 6.7926 22.6679 5.68641C21.7664 4.58064 20.3882 3.81122 18.9156 3.59289C17.3649 3.36301 15.5739 3.70641 13.9136 4.46987C12.6568 5.04773 11.447 5.86075 10.3003 6.8301C10.2046 6.91069 10.1096 6.99263 10.015 7.07543ZM16.7829 9.01878C17.3287 8.53667 17.9804 8.21822 18.5945 8.13345C19.2086 8.04869 19.7349 8.20456 20.0576 8.56678C20.3803 8.92902 20.473 9.46794 20.3152 10.065C20.1574 10.662 19.7621 11.2683 19.2163 11.7504C18.946 11.9892 18.6469 12.1902 18.3361 12.3421C18.0252 12.494 17.7087 12.5939 17.4046 12.6358C17.1005 12.6778 16.8148 12.6611 16.5637 12.5868C16.3127 12.5124 16.1012 12.3818 15.9414 12.2025C15.7817 12.0231 15.6767 11.7985 15.6325 11.5414C15.5883 11.2843 15.6058 10.9999 15.6839 10.7042C15.7621 10.4086 15.8993 10.1076 16.0879 9.8184C16.2764 9.52921 16.5126 9.25749 16.7829 9.01878Z" fill="#EE8383"/>
<path d="M39.0601 8.66421C36.6263 10.7945 36.3334 14.9016 36.3334 14.9016C13.3126 10.1777 8.68946 27.5069 8.68946 27.5069C8.68946 27.5069 23.8866 37.1243 37.5923 18.1096C37.5923 18.1096 40.6038 20.9315 43.8436 20.8538C43.8436 20.8538 41.0254 18.6967 39.7413 15.4246C38.4577 12.1527 39.0601 8.66421 39.0601 8.66421ZM14.4785 25.047C13.9389 25.257 13.3127 24.9455 13.0796 24.3516C12.8466 23.7578 13.095 23.1064 13.6346 22.8965C14.1742 22.6865 14.8003 22.9976 15.0333 23.5915C15.2664 24.1853 15.0181 24.8371 14.4785 25.047ZM19.6784 27.7047C19.652 27.8367 19.5659 27.9338 19.4568 27.9763C19.3867 28.0035 19.3061 28.0079 19.2249 27.9826C19.0198 27.9204 18.8891 27.6939 18.9337 27.4777C19.7378 23.5874 16.8214 21.7963 16.6975 21.7219C16.5083 21.6093 16.4297 21.3598 16.5219 21.1647C16.6133 20.9695 16.8403 20.9015 17.0299 21.0131C17.0659 21.0347 20.6125 23.1862 19.6784 27.7047Z" fill="#7A7871"/>
</svg>
