<svg width="36" height="15" viewBox="0 0 36 15" fill="none" xmlns="http://www.w3.org/2000/svg">
<path d="M35.4165 1.13079C32.3879 2.26622 30.6659 6.0064 30.6659 6.0064C10.7886 -6.53029 0.352824 8.05632 0.352824 8.05632C0.352824 8.05632 11.1836 22.414 30.7129 9.45225C30.7129 9.45225 32.5362 13.1547 35.5953 14.2242C35.5953 14.2242 33.7185 11.212 33.6705 7.69723C33.6229 4.18289 35.4165 1.13079 35.4165 1.13079ZM6.63742 7.79534C6.05844 7.80157 5.58223 7.28932 5.57352 6.65142C5.56481 6.01352 6.02689 5.49159 6.60587 5.48536C7.18486 5.47912 7.66106 5.99095 7.66977 6.62885C7.67849 7.26675 7.21641 7.7891 6.63742 7.79534ZM10.5664 12.1156C10.4951 12.2299 10.3804 12.2904 10.2633 12.2916C10.1882 12.2924 10.1111 12.268 10.0441 12.2158C9.87404 12.0852 9.83161 11.8272 9.94961 11.6406C12.0736 8.28361 9.97593 5.57937 9.88626 5.46601C9.74887 5.29391 9.76323 5.03276 9.91835 4.88273C10.0727 4.73229 10.309 4.74866 10.4472 4.91991C10.4732 4.95283 13.0336 8.21653 10.5664 12.1156Z" fill="#7A7871"/>
</svg>
