<svg width="151" height="112" viewBox="0 0 151 112" fill="none" xmlns="http://www.w3.org/2000/svg">
<path d="M139.154 84.09C145.221 72.2501 150.156 57.7311 150.156 42.2574C150.156 34.4847 147.75 25.6491 143.72 18.6228C140.196 12.4788 133.66 4.54086 122.533 1.61423C108.45 -2.0891 94.1822 1.36449 82.7172 4.13985C78.5739 5.14275 74.6603 6.08998 71.308 6.55843C63.7905 7.60806 55.8481 7.45429 49.0205 7.18814H49.0161C47.9478 7.14639 46.9042 7.10216 45.8968 7.05934C41.5831 6.8756 31.6487 6.69936 31.6487 6.69936C31.1066 4.37389 29.8707 2.46871 28.328 1.58926C27.6744 1.22287 26.9608 1.03714 26.2398 1.04572C25.5187 1.05431 24.8083 1.25697 24.1609 1.63885C22.0389 2.79444 21.0214 5.36216 21.5024 8.26096C18.1025 10.022 14.7808 13.5273 12.7663 16.2838C11.0366 18.6503 9.56982 22.3868 8.15083 26.0002C6.70603 29.6803 5.21226 33.4857 3.71731 35.0223C3.35136 35.3954 3.02772 35.8246 2.75469 36.2989C2.74995 36.2989 2.7452 36.2957 2.74015 36.2946C2.42755 36.2189 2.10524 36.2226 1.7939 36.3055C1.48255 36.3883 1.18905 36.5485 0.9322 36.7757C0.675354 37.0029 0.46084 37.2922 0.302413 37.6249C0.143986 37.9577 0.0451441 38.3265 0.0122261 38.7079C-0.0206918 39.0892 0.0130407 39.4746 0.111261 39.8394C0.20948 40.2042 0.370019 40.5402 0.582582 40.826C0.795144 41.1118 1.05504 41.341 1.3456 41.499C1.63615 41.657 1.95096 41.7402 2.26983 41.7433C2.53975 42.7543 2.9043 43.7253 3.35647 44.6374C6.36478 50.8635 11.1235 54.7342 15.322 58.1485C17.6366 60.0309 19.8223 61.8091 21.5158 63.7949C22.7863 65.3368 23.8914 67.0636 24.8054 68.9353C24.8155 68.9592 24.8289 68.9795 24.8398 69.0027C26.5588 72.4609 27.9223 76.6802 28.1769 80.71C28.4989 85.8011 29.2606 99.5477 29.5001 103.89C28.6728 104.206 27.8968 104.691 27.2057 105.322C26.6915 105.79 26.3143 106.442 26.1285 107.184C25.9427 107.926 25.958 108.72 26.1722 109.451C26.3755 110.197 26.7708 110.846 27.3011 111.304C27.8314 111.763 28.4691 112.006 29.122 112H43.1831C43.6361 112.001 44.0838 111.882 44.4945 111.652C44.9052 111.422 45.269 111.087 45.5603 110.67C48.6701 106.224 56.427 94.7655 61.3359 84.3694C80.3395 84.3469 93.3181 83.5178 100.889 81.8363C102.016 90.4078 103.506 100.175 104.05 103.697C103.58 103.961 103.136 104.287 102.725 104.667C102.162 105.189 101.75 105.909 101.545 106.726C101.34 107.544 101.352 108.418 101.581 109.227C101.81 110.035 102.244 110.737 102.822 111.234C103.399 111.731 104.091 111.999 104.802 111.999H117.982C118.761 111.998 119.517 111.676 120.123 111.087C124.47 106.848 132.423 97.1644 139.055 84.2834C139.092 84.2219 139.125 84.1572 139.154 84.09V84.09ZM46.2722 43.3506C42.0208 54.0624 34.5375 62.7274 26.5659 66.2616C25.6507 64.5399 24.5832 62.9424 23.382 61.4969C21.5173 59.3102 19.2354 57.4546 16.8194 55.4895C12.6651 52.1101 8.36804 48.6158 5.66656 43.0245C4.02205 39.6212 4.6363 38.3032 5.45351 37.4634C7.38407 35.479 8.93006 31.5409 10.5671 27.3709C11.9066 23.9584 13.2918 20.4299 14.7734 18.4037C16.5663 15.9502 19.7547 12.5573 22.8401 11.0695C23.1432 10.9228 23.4158 10.6977 23.6384 10.4102C25.325 13.3743 29.3422 12.9372 30.3505 10.2382C30.4208 10.0443 30.473 9.84161 30.506 9.63384C34.752 10.2978 41.5176 10.0852 45.8027 10.2685C46.5291 10.2996 47.2781 10.331 48.0365 10.3617C51.1615 20.9126 50.5451 32.5841 46.2722 43.3506ZM128.213 72.7606C125.723 72.2044 113.368 69.9578 103.005 77.2603C102.512 73.233 102.176 69.884 102.176 68.2471C102.176 67.8213 102.035 67.4129 101.785 67.1118C101.534 66.8107 101.195 66.6416 100.841 66.6416C100.486 66.6416 100.147 66.8107 99.8964 67.1118C99.646 67.4129 99.5053 67.8213 99.5053 68.2471C99.5053 70.148 99.9089 74.0657 100.481 78.6621C94.0151 80.1145 83.3531 80.9226 68.0701 81.1145C71.1125 78.8933 73.5386 75.7048 75.3104 71.5576C77.7778 65.786 78.8683 58.2663 78.4641 49.8111C78.0089 40.2851 71.9205 27.4541 67.0282 17.1454C65.895 14.7582 64.8101 12.4716 63.9066 10.448C66.4796 10.3213 69.0668 10.1037 71.6152 9.74764C75.0775 9.26457 79.0439 8.30413 83.243 7.28589C94.4629 4.56976 108.426 1.18932 121.961 4.74958C140.556 9.64169 147.486 30.3522 147.486 42.2574C147.486 55.9597 143.436 68.9085 138.211 79.7877C136.677 77.0295 133.48 73.9387 128.213 72.7606V72.7606Z" fill="black"/>
<path d="M17.8972 23.8363C12.5229 21.3393 9.39694 28.3519 12.8173 32.4702C14.6876 34.721 16.4656 39.9365 20.5296 39.5039C26.9863 38.8181 26.3917 27.7787 17.8972 23.8363ZM15.4626 30.6214C15.1439 30.6214 14.8323 30.5062 14.5673 30.2905C14.3023 30.0747 14.0958 29.7681 13.9738 29.4093C13.8518 29.0505 13.8199 28.6557 13.8821 28.2749C13.9443 27.894 14.0978 27.5441 14.3231 27.2695C14.5485 26.9949 14.8356 26.8079 15.1482 26.7322C15.4608 26.6564 15.7848 26.6953 16.0793 26.8439C16.3737 26.9925 16.6254 27.2442 16.8025 27.5671C16.9795 27.89 17.074 28.2696 17.074 28.6579C17.074 29.1786 16.9042 29.678 16.602 30.0462C16.2998 30.4144 15.89 30.6213 15.4626 30.6214V30.6214Z" fill="black"/>
<path d="M75.6848 87.4418C75.6684 87.3629 75.6301 87.2928 75.5761 87.243C75.5222 87.1933 75.4556 87.1667 75.3874 87.1676C73.93 87.186 66.2155 87.282 62.9447 87.2975C62.8944 87.2973 62.8448 87.3125 62.8009 87.3416C62.7569 87.3707 62.72 87.4128 62.6936 87.4638C60.5911 91.4443 56.9031 97.638 54.4674 101.67C54.4273 101.736 54.4075 101.817 54.4113 101.899C54.4151 101.981 54.4423 102.058 54.4883 102.119L57.8918 106.663L57.8555 106.728C57.8433 106.753 57.8282 106.778 57.8161 106.803C57.5505 107.322 57.4057 107.915 57.3965 108.522C57.3872 109.129 57.5139 109.728 57.7635 110.257C58.0131 110.786 58.3766 111.227 58.8166 111.533C59.2565 111.839 59.757 112.001 60.2666 112H74.7397C75.1225 112 75.5014 111.908 75.8541 111.731C76.2068 111.554 76.5262 111.294 76.7935 110.968C77.0608 110.641 77.2706 110.254 77.4105 109.83C77.5504 109.405 77.6177 108.952 77.6083 108.496C77.5598 106.147 77.4326 102.459 77.1176 98.4564C76.8567 94.7495 76.378 91.0689 75.6848 87.4418Z" fill="black"/>
<path d="M147.042 74.2325C147.023 74.1636 146.986 74.1037 146.938 74.0606C146.89 74.0175 146.833 73.9933 146.773 73.9912C146.714 73.9891 146.655 74.0092 146.605 74.0488C146.555 74.0884 146.516 74.1457 146.493 74.213C146.099 75.3868 145.657 76.5355 145.169 77.6548C141.084 87.029 136.131 95.795 130.406 103.779C130.358 103.846 130.331 103.933 130.332 104.023C130.334 104.112 130.363 104.198 130.413 104.263L131.403 105.542C131.112 105.964 130.868 106.431 130.677 106.931C130.473 107.483 130.385 108.09 130.423 108.695C130.461 109.301 130.623 109.884 130.895 110.392C131.136 110.875 131.474 111.275 131.875 111.556C132.277 111.837 132.73 111.99 133.192 112H148.217C148.588 112 148.956 111.909 149.297 111.732C149.639 111.556 149.949 111.297 150.208 110.972C150.467 110.647 150.671 110.262 150.807 109.839C150.942 109.416 151.008 108.964 150.999 108.51C150.851 101.199 150.161 84.9962 147.042 74.2325Z" fill="black"/>
</svg>
