<svg width="991" height="36" viewBox="0 0 991 36" fill="none" xmlns="http://www.w3.org/2000/svg">
<path d="M268.078 15.2597C267.662 14.8701 267.247 14.5844 266.857 14.3766C266.468 14.1948 266.026 14.0909 265.532 14.0909C264.961 14.0909 264.545 14.2208 264.26 14.4545C263.974 14.6883 263.818 15.0779 263.818 15.5974C263.818 15.961 263.974 16.2987 264.286 16.5325C264.597 16.7922 264.961 17.026 265.429 17.2597C265.896 17.4935 266.39 17.7273 266.909 17.987C267.429 18.2468 267.922 18.5325 268.39 18.8961C268.857 19.2597 269.221 19.6753 269.532 20.1948C269.844 20.7143 270 21.3377 270 22.0649C270 23.1818 269.688 24.1429 269.091 24.9481C268.494 25.7532 267.558 26.2727 266.364 26.5584V29H264.104V26.6623C263.429 26.5844 262.701 26.4026 261.948 26.0909C261.195 25.7792 260.545 25.3896 260 24.8961L261.506 22.5844C262.104 23.026 262.675 23.3636 263.195 23.5974C263.74 23.8312 264.286 23.9351 264.831 23.9351C265.481 23.9351 265.974 23.8052 266.26 23.5455C266.571 23.2857 266.727 22.8701 266.727 22.3247C266.727 21.9091 266.571 21.5714 266.26 21.2857C265.948 21 265.584 20.7403 265.117 20.4805C264.649 20.2208 264.156 19.961 263.636 19.7013C263.117 19.4416 262.623 19.1299 262.156 18.7662C261.688 18.4026 261.325 17.987 261.013 17.4935C260.701 17 260.545 16.4286 260.545 15.7273C260.545 14.5844 260.857 13.6234 261.481 12.8701C262.104 12.1169 262.987 11.6234 264.078 11.4156V9H266.338V11.3636C267.091 11.4675 267.74 11.7013 268.312 12.039C268.883 12.3766 269.377 12.7922 269.844 13.2857L268.078 15.2597Z" fill="#FE9013"/>
<path d="M281.75 8.45215V27H278.69V12.083L274.158 13.6191V11.0928L281.382 8.45215H281.75ZM300.222 16.209V19.2305C300.222 20.6777 300.078 21.9134 299.79 22.9375C299.511 23.9531 299.104 24.7783 298.571 25.4131C298.038 26.0479 297.399 26.5133 296.654 26.8096C295.918 27.1058 295.093 27.2539 294.179 27.2539C293.451 27.2539 292.774 27.1608 292.147 26.9746C291.53 26.7884 290.971 26.4964 290.472 26.0986C289.972 25.7008 289.545 25.1888 289.189 24.5625C288.842 23.9277 288.572 23.1702 288.377 22.29C288.191 21.4098 288.098 20.39 288.098 19.2305V16.209C288.098 14.7533 288.242 13.526 288.529 12.5273C288.817 11.5202 289.228 10.7035 289.761 10.0771C290.294 9.44238 290.929 8.98112 291.665 8.69336C292.41 8.4056 293.239 8.26172 294.153 8.26172C294.89 8.26172 295.567 8.35482 296.185 8.54102C296.811 8.71875 297.369 9.00228 297.86 9.3916C298.36 9.78092 298.783 10.2887 299.13 10.915C299.485 11.5329 299.756 12.2819 299.942 13.1621C300.129 14.0339 300.222 15.0495 300.222 16.209ZM297.162 19.6621V15.752C297.162 15.0156 297.12 14.3682 297.035 13.8096C296.951 13.2425 296.824 12.7643 296.654 12.375C296.493 11.9772 296.29 11.6556 296.045 11.4102C295.799 11.1562 295.52 10.9743 295.207 10.8643C294.894 10.7458 294.543 10.6865 294.153 10.6865C293.679 10.6865 293.256 10.7796 292.884 10.9658C292.511 11.1436 292.198 11.4313 291.944 11.8291C291.69 12.2269 291.496 12.7516 291.36 13.4033C291.233 14.0465 291.17 14.8294 291.17 15.752V19.6621C291.17 20.4069 291.212 21.0628 291.297 21.6299C291.382 22.1969 291.508 22.6836 291.678 23.0898C291.847 23.4876 292.05 23.8177 292.287 24.0801C292.533 24.334 292.812 24.5202 293.125 24.6387C293.447 24.7572 293.798 24.8164 294.179 24.8164C294.661 24.8164 295.089 24.7233 295.461 24.5371C295.833 24.3509 296.146 24.0547 296.4 23.6484C296.654 23.2337 296.845 22.6963 296.972 22.0361C297.099 21.376 297.162 20.5846 297.162 19.6621ZM314.999 16.209V19.2305C314.999 20.6777 314.855 21.9134 314.567 22.9375C314.288 23.9531 313.882 24.7783 313.349 25.4131C312.815 26.0479 312.176 26.5133 311.432 26.8096C310.695 27.1058 309.87 27.2539 308.956 27.2539C308.228 27.2539 307.551 27.1608 306.925 26.9746C306.307 26.7884 305.748 26.4964 305.249 26.0986C304.75 25.7008 304.322 25.1888 303.967 24.5625C303.62 23.9277 303.349 23.1702 303.154 22.29C302.968 21.4098 302.875 20.39 302.875 19.2305V16.209C302.875 14.7533 303.019 13.526 303.307 12.5273C303.594 11.5202 304.005 10.7035 304.538 10.0771C305.071 9.44238 305.706 8.98112 306.442 8.69336C307.187 8.4056 308.017 8.26172 308.931 8.26172C309.667 8.26172 310.344 8.35482 310.962 8.54102C311.588 8.71875 312.147 9.00228 312.638 9.3916C313.137 9.78092 313.56 10.2887 313.907 10.915C314.263 11.5329 314.534 12.2819 314.72 13.1621C314.906 14.0339 314.999 15.0495 314.999 16.209ZM311.939 19.6621V15.752C311.939 15.0156 311.897 14.3682 311.812 13.8096C311.728 13.2425 311.601 12.7643 311.432 12.375C311.271 11.9772 311.068 11.6556 310.822 11.4102C310.577 11.1562 310.298 10.9743 309.984 10.8643C309.671 10.7458 309.32 10.6865 308.931 10.6865C308.457 10.6865 308.034 10.7796 307.661 10.9658C307.289 11.1436 306.976 11.4313 306.722 11.8291C306.468 12.2269 306.273 12.7516 306.138 13.4033C306.011 14.0465 305.947 14.8294 305.947 15.752V19.6621C305.947 20.4069 305.99 21.0628 306.074 21.6299C306.159 22.1969 306.286 22.6836 306.455 23.0898C306.624 23.4876 306.827 23.8177 307.064 24.0801C307.31 24.334 307.589 24.5202 307.902 24.6387C308.224 24.7572 308.575 24.8164 308.956 24.8164C309.438 24.8164 309.866 24.7233 310.238 24.5371C310.611 24.3509 310.924 24.0547 311.178 23.6484C311.432 23.2337 311.622 22.6963 311.749 22.0361C311.876 21.376 311.939 20.5846 311.939 19.6621ZM329.776 16.209V19.2305C329.776 20.6777 329.632 21.9134 329.345 22.9375C329.065 23.9531 328.659 24.7783 328.126 25.4131C327.593 26.0479 326.954 26.5133 326.209 26.8096C325.473 27.1058 324.647 27.2539 323.733 27.2539C323.006 27.2539 322.328 27.1608 321.702 26.9746C321.084 26.7884 320.526 26.4964 320.026 26.0986C319.527 25.7008 319.1 25.1888 318.744 24.5625C318.397 23.9277 318.126 23.1702 317.932 22.29C317.745 21.4098 317.652 20.39 317.652 19.2305V16.209C317.652 14.7533 317.796 13.526 318.084 12.5273C318.372 11.5202 318.782 10.7035 319.315 10.0771C319.849 9.44238 320.483 8.98112 321.22 8.69336C321.965 8.4056 322.794 8.26172 323.708 8.26172C324.444 8.26172 325.121 8.35482 325.739 8.54102C326.366 8.71875 326.924 9.00228 327.415 9.3916C327.914 9.78092 328.338 10.2887 328.685 10.915C329.04 11.5329 329.311 12.2819 329.497 13.1621C329.683 14.0339 329.776 15.0495 329.776 16.209ZM326.717 19.6621V15.752C326.717 15.0156 326.674 14.3682 326.59 13.8096C326.505 13.2425 326.378 12.7643 326.209 12.375C326.048 11.9772 325.845 11.6556 325.6 11.4102C325.354 11.1562 325.075 10.9743 324.762 10.8643C324.449 10.7458 324.097 10.6865 323.708 10.6865C323.234 10.6865 322.811 10.7796 322.438 10.9658C322.066 11.1436 321.753 11.4313 321.499 11.8291C321.245 12.2269 321.05 12.7516 320.915 13.4033C320.788 14.0465 320.725 14.8294 320.725 15.752V19.6621C320.725 20.4069 320.767 21.0628 320.852 21.6299C320.936 22.1969 321.063 22.6836 321.232 23.0898C321.402 23.4876 321.605 23.8177 321.842 24.0801C322.087 24.334 322.367 24.5202 322.68 24.6387C323.001 24.7572 323.353 24.8164 323.733 24.8164C324.216 24.8164 324.643 24.7233 325.016 24.5371C325.388 24.3509 325.701 24.0547 325.955 23.6484C326.209 23.2337 326.399 22.6963 326.526 22.0361C326.653 21.376 326.717 20.5846 326.717 19.6621Z" fill="#FE9013"/>
<path d="M398.078 15.2597C397.662 14.8701 397.247 14.5844 396.857 14.3766C396.468 14.1948 396.026 14.0909 395.532 14.0909C394.961 14.0909 394.545 14.2208 394.26 14.4545C393.974 14.6883 393.818 15.0779 393.818 15.5974C393.818 15.961 393.974 16.2987 394.286 16.5325C394.597 16.7922 394.961 17.026 395.429 17.2597C395.896 17.4935 396.39 17.7273 396.909 17.987C397.429 18.2468 397.922 18.5325 398.39 18.8961C398.857 19.2597 399.221 19.6753 399.532 20.1948C399.844 20.7143 400 21.3377 400 22.0649C400 23.1818 399.688 24.1429 399.091 24.9481C398.494 25.7532 397.558 26.2727 396.364 26.5584V29H394.104V26.6623C393.429 26.5844 392.701 26.4026 391.948 26.0909C391.195 25.7792 390.545 25.3896 390 24.8961L391.506 22.5844C392.104 23.026 392.675 23.3636 393.195 23.5974C393.74 23.8312 394.286 23.9351 394.831 23.9351C395.481 23.9351 395.974 23.8052 396.26 23.5455C396.571 23.2857 396.727 22.8701 396.727 22.3247C396.727 21.9091 396.571 21.5714 396.26 21.2857C395.948 21 395.584 20.7403 395.117 20.4805C394.649 20.2208 394.156 19.961 393.636 19.7013C393.117 19.4416 392.623 19.1299 392.156 18.7662C391.688 18.4026 391.325 17.987 391.013 17.4935C390.701 17 390.545 16.4286 390.545 15.7273C390.545 14.5844 390.857 13.6234 391.481 12.8701C392.104 12.1169 392.987 11.6234 394.078 11.4156V9H396.338V11.3636C397.091 11.4675 397.74 11.7013 398.312 12.039C398.883 12.3766 399.377 12.7922 399.844 13.2857L398.078 15.2597Z" fill="#333B41"/>
<path d="M406.608 18.4053L404.171 17.8086L405.174 8.51562H415.14V11.1055H407.713L407.205 15.6377C407.493 15.4684 407.891 15.3034 408.398 15.1426C408.906 14.9733 409.486 14.8887 410.138 14.8887C411.009 14.8887 411.788 15.0326 412.474 15.3203C413.168 15.5996 413.756 16.0101 414.238 16.5518C414.721 17.085 415.089 17.7367 415.343 18.5068C415.597 19.2686 415.724 20.1276 415.724 21.084C415.724 21.9388 415.597 22.7386 415.343 23.4834C415.097 24.2282 414.725 24.8841 414.226 25.4512C413.726 26.0182 413.096 26.4626 412.334 26.7842C411.581 27.0973 410.688 27.2539 409.655 27.2539C408.885 27.2539 408.145 27.1439 407.434 26.9238C406.731 26.6953 406.101 26.361 405.542 25.9209C404.983 25.4723 404.535 24.9222 404.196 24.2705C403.858 23.6104 403.663 22.8529 403.612 21.998H406.608C406.685 22.599 406.85 23.111 407.104 23.5342C407.366 23.9489 407.713 24.2663 408.145 24.4863C408.576 24.7064 409.076 24.8164 409.643 24.8164C410.159 24.8164 410.603 24.7275 410.976 24.5498C411.348 24.3636 411.657 24.1012 411.902 23.7627C412.156 23.4157 412.342 23.0094 412.461 22.5439C412.588 22.0785 412.651 21.5622 412.651 20.9951C412.651 20.4535 412.579 19.9583 412.436 19.5098C412.3 19.0612 412.093 18.6719 411.813 18.3418C411.543 18.0117 411.2 17.7578 410.785 17.5801C410.37 17.3939 409.892 17.3008 409.351 17.3008C408.623 17.3008 408.064 17.4066 407.675 17.6182C407.294 17.8298 406.938 18.0921 406.608 18.4053ZM430.222 16.209V19.2305C430.222 20.6777 430.078 21.9134 429.79 22.9375C429.511 23.9531 429.104 24.7783 428.571 25.4131C428.038 26.0479 427.399 26.5133 426.654 26.8096C425.918 27.1058 425.093 27.2539 424.179 27.2539C423.451 27.2539 422.774 27.1608 422.147 26.9746C421.53 26.7884 420.971 26.4964 420.472 26.0986C419.972 25.7008 419.545 25.1888 419.189 24.5625C418.842 23.9277 418.572 23.1702 418.377 22.29C418.191 21.4098 418.098 20.39 418.098 19.2305V16.209C418.098 14.7533 418.242 13.526 418.529 12.5273C418.817 11.5202 419.228 10.7035 419.761 10.0771C420.294 9.44238 420.929 8.98112 421.665 8.69336C422.41 8.4056 423.239 8.26172 424.153 8.26172C424.89 8.26172 425.567 8.35482 426.185 8.54102C426.811 8.71875 427.369 9.00228 427.86 9.3916C428.36 9.78092 428.783 10.2887 429.13 10.915C429.485 11.5329 429.756 12.2819 429.942 13.1621C430.129 14.0339 430.222 15.0495 430.222 16.209ZM427.162 19.6621V15.752C427.162 15.0156 427.12 14.3682 427.035 13.8096C426.951 13.2425 426.824 12.7643 426.654 12.375C426.493 11.9772 426.29 11.6556 426.045 11.4102C425.799 11.1562 425.52 10.9743 425.207 10.8643C424.894 10.7458 424.543 10.6865 424.153 10.6865C423.679 10.6865 423.256 10.7796 422.884 10.9658C422.511 11.1436 422.198 11.4313 421.944 11.8291C421.69 12.2269 421.496 12.7516 421.36 13.4033C421.233 14.0465 421.17 14.8294 421.17 15.752V19.6621C421.17 20.4069 421.212 21.0628 421.297 21.6299C421.382 22.1969 421.508 22.6836 421.678 23.0898C421.847 23.4876 422.05 23.8177 422.287 24.0801C422.533 24.334 422.812 24.5202 423.125 24.6387C423.447 24.7572 423.798 24.8164 424.179 24.8164C424.661 24.8164 425.089 24.7233 425.461 24.5371C425.833 24.3509 426.146 24.0547 426.4 23.6484C426.654 23.2337 426.845 22.6963 426.972 22.0361C427.099 21.376 427.162 20.5846 427.162 19.6621ZM444.999 16.209V19.2305C444.999 20.6777 444.855 21.9134 444.567 22.9375C444.288 23.9531 443.882 24.7783 443.349 25.4131C442.815 26.0479 442.176 26.5133 441.432 26.8096C440.695 27.1058 439.87 27.2539 438.956 27.2539C438.228 27.2539 437.551 27.1608 436.925 26.9746C436.307 26.7884 435.748 26.4964 435.249 26.0986C434.75 25.7008 434.322 25.1888 433.967 24.5625C433.62 23.9277 433.349 23.1702 433.154 22.29C432.968 21.4098 432.875 20.39 432.875 19.2305V16.209C432.875 14.7533 433.019 13.526 433.307 12.5273C433.594 11.5202 434.005 10.7035 434.538 10.0771C435.071 9.44238 435.706 8.98112 436.442 8.69336C437.187 8.4056 438.017 8.26172 438.931 8.26172C439.667 8.26172 440.344 8.35482 440.962 8.54102C441.588 8.71875 442.147 9.00228 442.638 9.3916C443.137 9.78092 443.56 10.2887 443.907 10.915C444.263 11.5329 444.534 12.2819 444.72 13.1621C444.906 14.0339 444.999 15.0495 444.999 16.209ZM441.939 19.6621V15.752C441.939 15.0156 441.897 14.3682 441.812 13.8096C441.728 13.2425 441.601 12.7643 441.432 12.375C441.271 11.9772 441.068 11.6556 440.822 11.4102C440.577 11.1562 440.298 10.9743 439.984 10.8643C439.671 10.7458 439.32 10.6865 438.931 10.6865C438.457 10.6865 438.034 10.7796 437.661 10.9658C437.289 11.1436 436.976 11.4313 436.722 11.8291C436.468 12.2269 436.273 12.7516 436.138 13.4033C436.011 14.0465 435.947 14.8294 435.947 15.752V19.6621C435.947 20.4069 435.99 21.0628 436.074 21.6299C436.159 22.1969 436.286 22.6836 436.455 23.0898C436.624 23.4876 436.827 23.8177 437.064 24.0801C437.31 24.334 437.589 24.5202 437.902 24.6387C438.224 24.7572 438.575 24.8164 438.956 24.8164C439.438 24.8164 439.866 24.7233 440.238 24.5371C440.611 24.3509 440.924 24.0547 441.178 23.6484C441.432 23.2337 441.622 22.6963 441.749 22.0361C441.876 21.376 441.939 20.5846 441.939 19.6621Z" fill="#333B41"/>
<path d="M528.078 15.2597C527.662 14.8701 527.247 14.5844 526.857 14.3766C526.468 14.1948 526.026 14.0909 525.532 14.0909C524.961 14.0909 524.545 14.2208 524.26 14.4545C523.974 14.6883 523.818 15.0779 523.818 15.5974C523.818 15.961 523.974 16.2987 524.286 16.5325C524.597 16.7922 524.961 17.026 525.429 17.2597C525.896 17.4935 526.39 17.7273 526.909 17.987C527.429 18.2468 527.922 18.5325 528.39 18.8961C528.857 19.2597 529.221 19.6753 529.532 20.1948C529.844 20.7143 530 21.3377 530 22.0649C530 23.1818 529.688 24.1429 529.091 24.9481C528.494 25.7532 527.558 26.2727 526.364 26.5584V29H524.104V26.6623C523.429 26.5844 522.701 26.4026 521.948 26.0909C521.195 25.7792 520.545 25.3896 520 24.8961L521.506 22.5844C522.104 23.026 522.675 23.3636 523.195 23.5974C523.74 23.8312 524.286 23.9351 524.831 23.9351C525.481 23.9351 525.974 23.8052 526.26 23.5455C526.571 23.2857 526.727 22.8701 526.727 22.3247C526.727 21.9091 526.571 21.5714 526.26 21.2857C525.948 21 525.584 20.7403 525.117 20.4805C524.649 20.2208 524.156 19.961 523.636 19.7013C523.117 19.4416 522.623 19.1299 522.156 18.7662C521.688 18.4026 521.325 17.987 521.013 17.4935C520.701 17 520.545 16.4286 520.545 15.7273C520.545 14.5844 520.857 13.6234 521.481 12.8701C522.104 12.1169 522.987 11.6234 524.078 11.4156V9H526.338V11.3636C527.091 11.4675 527.74 11.7013 528.312 12.039C528.883 12.3766 529.377 12.7922 529.844 13.2857L528.078 15.2597Z" fill="#333B41"/>
<path d="M545.787 24.5625V27H533.396V24.9053L539.414 18.3418C540.074 17.597 540.595 16.9538 540.976 16.4121C541.356 15.8704 541.623 15.3838 541.775 14.9521C541.936 14.512 542.017 14.0846 542.017 13.6699C542.017 13.0859 541.907 12.5739 541.687 12.1338C541.475 11.6852 541.162 11.334 540.747 11.0801C540.332 10.8177 539.829 10.6865 539.236 10.6865C538.551 10.6865 537.975 10.8346 537.51 11.1309C537.044 11.4271 536.693 11.8376 536.456 12.3623C536.219 12.8786 536.101 13.471 536.101 14.1396H533.041C533.041 13.0648 533.286 12.083 533.777 11.1943C534.268 10.2972 534.979 9.58626 535.91 9.06152C536.841 8.52832 537.963 8.26172 539.274 8.26172C540.51 8.26172 541.56 8.46908 542.423 8.88379C543.286 9.2985 543.942 9.88672 544.391 10.6484C544.848 11.4102 545.076 12.3115 545.076 13.3525C545.076 13.9281 544.983 14.4993 544.797 15.0664C544.611 15.6335 544.344 16.2005 543.997 16.7676C543.659 17.3262 543.257 17.889 542.791 18.4561C542.326 19.0146 541.813 19.5817 541.255 20.1572L537.256 24.5625H545.787ZM551.386 18.4053L548.948 17.8086L549.951 8.51562H559.917V11.1055H552.49L551.982 15.6377C552.27 15.4684 552.668 15.3034 553.176 15.1426C553.684 14.9733 554.263 14.8887 554.915 14.8887C555.787 14.8887 556.565 15.0326 557.251 15.3203C557.945 15.5996 558.533 16.0101 559.016 16.5518C559.498 17.085 559.866 17.7367 560.12 18.5068C560.374 19.2686 560.501 20.1276 560.501 21.084C560.501 21.9388 560.374 22.7386 560.12 23.4834C559.875 24.2282 559.502 24.8841 559.003 25.4512C558.504 26.0182 557.873 26.4626 557.111 26.7842C556.358 27.0973 555.465 27.2539 554.433 27.2539C553.662 27.2539 552.922 27.1439 552.211 26.9238C551.508 26.6953 550.878 26.361 550.319 25.9209C549.761 25.4723 549.312 24.9222 548.974 24.2705C548.635 23.6104 548.44 22.8529 548.39 21.998H551.386C551.462 22.599 551.627 23.111 551.881 23.5342C552.143 23.9489 552.49 24.2663 552.922 24.4863C553.354 24.7064 553.853 24.8164 554.42 24.8164C554.936 24.8164 555.381 24.7275 555.753 24.5498C556.125 24.3636 556.434 24.1012 556.68 23.7627C556.934 23.4157 557.12 23.0094 557.238 22.5439C557.365 22.0785 557.429 21.5622 557.429 20.9951C557.429 20.4535 557.357 19.9583 557.213 19.5098C557.077 19.0612 556.87 18.6719 556.591 18.3418C556.32 18.0117 555.977 17.7578 555.562 17.5801C555.148 17.3939 554.67 17.3008 554.128 17.3008C553.4 17.3008 552.841 17.4066 552.452 17.6182C552.071 17.8298 551.716 18.0921 551.386 18.4053ZM574.999 16.209V19.2305C574.999 20.6777 574.855 21.9134 574.567 22.9375C574.288 23.9531 573.882 24.7783 573.349 25.4131C572.815 26.0479 572.176 26.5133 571.432 26.8096C570.695 27.1058 569.87 27.2539 568.956 27.2539C568.228 27.2539 567.551 27.1608 566.925 26.9746C566.307 26.7884 565.748 26.4964 565.249 26.0986C564.75 25.7008 564.322 25.1888 563.967 24.5625C563.62 23.9277 563.349 23.1702 563.154 22.29C562.968 21.4098 562.875 20.39 562.875 19.2305V16.209C562.875 14.7533 563.019 13.526 563.307 12.5273C563.594 11.5202 564.005 10.7035 564.538 10.0771C565.071 9.44238 565.706 8.98112 566.442 8.69336C567.187 8.4056 568.017 8.26172 568.931 8.26172C569.667 8.26172 570.344 8.35482 570.962 8.54102C571.588 8.71875 572.147 9.00228 572.638 9.3916C573.137 9.78092 573.56 10.2887 573.907 10.915C574.263 11.5329 574.534 12.2819 574.72 13.1621C574.906 14.0339 574.999 15.0495 574.999 16.209ZM571.939 19.6621V15.752C571.939 15.0156 571.897 14.3682 571.812 13.8096C571.728 13.2425 571.601 12.7643 571.432 12.375C571.271 11.9772 571.068 11.6556 570.822 11.4102C570.577 11.1562 570.298 10.9743 569.984 10.8643C569.671 10.7458 569.32 10.6865 568.931 10.6865C568.457 10.6865 568.034 10.7796 567.661 10.9658C567.289 11.1436 566.976 11.4313 566.722 11.8291C566.468 12.2269 566.273 12.7516 566.138 13.4033C566.011 14.0465 565.947 14.8294 565.947 15.752V19.6621C565.947 20.4069 565.99 21.0628 566.074 21.6299C566.159 22.1969 566.286 22.6836 566.455 23.0898C566.624 23.4876 566.827 23.8177 567.064 24.0801C567.31 24.334 567.589 24.5202 567.902 24.6387C568.224 24.7572 568.575 24.8164 568.956 24.8164C569.438 24.8164 569.866 24.7233 570.238 24.5371C570.611 24.3509 570.924 24.0547 571.178 23.6484C571.432 23.2337 571.622 22.6963 571.749 22.0361C571.876 21.376 571.939 20.5846 571.939 19.6621Z" fill="#333B41"/>
<path d="M657.078 15.2597C656.662 14.8701 656.247 14.5844 655.857 14.3766C655.468 14.1948 655.026 14.0909 654.532 14.0909C653.961 14.0909 653.545 14.2208 653.26 14.4545C652.974 14.6883 652.818 15.0779 652.818 15.5974C652.818 15.961 652.974 16.2987 653.286 16.5325C653.597 16.7922 653.961 17.026 654.429 17.2597C654.896 17.4935 655.39 17.7273 655.909 17.987C656.429 18.2468 656.922 18.5325 657.39 18.8961C657.857 19.2597 658.221 19.6753 658.532 20.1948C658.844 20.7143 659 21.3377 659 22.0649C659 23.1818 658.688 24.1429 658.091 24.9481C657.494 25.7532 656.558 26.2727 655.364 26.5584V29H653.104V26.6623C652.429 26.5844 651.701 26.4026 650.948 26.0909C650.195 25.7792 649.545 25.3896 649 24.8961L650.506 22.5844C651.104 23.026 651.675 23.3636 652.195 23.5974C652.74 23.8312 653.286 23.9351 653.831 23.9351C654.481 23.9351 654.974 23.8052 655.26 23.5455C655.571 23.2857 655.727 22.8701 655.727 22.3247C655.727 21.9091 655.571 21.5714 655.26 21.2857C654.948 21 654.584 20.7403 654.117 20.4805C653.649 20.2208 653.156 19.961 652.636 19.7013C652.117 19.4416 651.623 19.1299 651.156 18.7662C650.688 18.4026 650.325 17.987 650.013 17.4935C649.701 17 649.545 16.4286 649.545 15.7273C649.545 14.5844 649.857 13.6234 650.481 12.8701C651.104 12.1169 651.987 11.6234 653.078 11.4156V9H655.338V11.3636C656.091 11.4675 656.74 11.7013 657.312 12.039C657.883 12.3766 658.377 12.7922 658.844 13.2857L657.078 15.2597Z" fill="#333B41"/>
<path d="M670.75 8.45215V27H667.69V12.083L663.158 13.6191V11.0928L670.382 8.45215H670.75ZM689.222 16.209V19.2305C689.222 20.6777 689.078 21.9134 688.79 22.9375C688.511 23.9531 688.104 24.7783 687.571 25.4131C687.038 26.0479 686.399 26.5133 685.654 26.8096C684.918 27.1058 684.093 27.2539 683.179 27.2539C682.451 27.2539 681.774 27.1608 681.147 26.9746C680.53 26.7884 679.971 26.4964 679.472 26.0986C678.972 25.7008 678.545 25.1888 678.189 24.5625C677.842 23.9277 677.572 23.1702 677.377 22.29C677.191 21.4098 677.098 20.39 677.098 19.2305V16.209C677.098 14.7533 677.242 13.526 677.529 12.5273C677.817 11.5202 678.228 10.7035 678.761 10.0771C679.294 9.44238 679.929 8.98112 680.665 8.69336C681.41 8.4056 682.239 8.26172 683.153 8.26172C683.89 8.26172 684.567 8.35482 685.185 8.54102C685.811 8.71875 686.369 9.00228 686.86 9.3916C687.36 9.78092 687.783 10.2887 688.13 10.915C688.485 11.5329 688.756 12.2819 688.942 13.1621C689.129 14.0339 689.222 15.0495 689.222 16.209ZM686.162 19.6621V15.752C686.162 15.0156 686.12 14.3682 686.035 13.8096C685.951 13.2425 685.824 12.7643 685.654 12.375C685.493 11.9772 685.29 11.6556 685.045 11.4102C684.799 11.1562 684.52 10.9743 684.207 10.8643C683.894 10.7458 683.543 10.6865 683.153 10.6865C682.679 10.6865 682.256 10.7796 681.884 10.9658C681.511 11.1436 681.198 11.4313 680.944 11.8291C680.69 12.2269 680.496 12.7516 680.36 13.4033C680.233 14.0465 680.17 14.8294 680.17 15.752V19.6621C680.17 20.4069 680.212 21.0628 680.297 21.6299C680.382 22.1969 680.508 22.6836 680.678 23.0898C680.847 23.4876 681.05 23.8177 681.287 24.0801C681.533 24.334 681.812 24.5202 682.125 24.6387C682.447 24.7572 682.798 24.8164 683.179 24.8164C683.661 24.8164 684.089 24.7233 684.461 24.5371C684.833 24.3509 685.146 24.0547 685.4 23.6484C685.654 23.2337 685.845 22.6963 685.972 22.0361C686.099 21.376 686.162 20.5846 686.162 19.6621ZM703.999 16.209V19.2305C703.999 20.6777 703.855 21.9134 703.567 22.9375C703.288 23.9531 702.882 24.7783 702.349 25.4131C701.815 26.0479 701.176 26.5133 700.432 26.8096C699.695 27.1058 698.87 27.2539 697.956 27.2539C697.228 27.2539 696.551 27.1608 695.925 26.9746C695.307 26.7884 694.748 26.4964 694.249 26.0986C693.75 25.7008 693.322 25.1888 692.967 24.5625C692.62 23.9277 692.349 23.1702 692.154 22.29C691.968 21.4098 691.875 20.39 691.875 19.2305V16.209C691.875 14.7533 692.019 13.526 692.307 12.5273C692.594 11.5202 693.005 10.7035 693.538 10.0771C694.071 9.44238 694.706 8.98112 695.442 8.69336C696.187 8.4056 697.017 8.26172 697.931 8.26172C698.667 8.26172 699.344 8.35482 699.962 8.54102C700.588 8.71875 701.147 9.00228 701.638 9.3916C702.137 9.78092 702.56 10.2887 702.907 10.915C703.263 11.5329 703.534 12.2819 703.72 13.1621C703.906 14.0339 703.999 15.0495 703.999 16.209ZM700.939 19.6621V15.752C700.939 15.0156 700.897 14.3682 700.812 13.8096C700.728 13.2425 700.601 12.7643 700.432 12.375C700.271 11.9772 700.068 11.6556 699.822 11.4102C699.577 11.1562 699.298 10.9743 698.984 10.8643C698.671 10.7458 698.32 10.6865 697.931 10.6865C697.457 10.6865 697.034 10.7796 696.661 10.9658C696.289 11.1436 695.976 11.4313 695.722 11.8291C695.468 12.2269 695.273 12.7516 695.138 13.4033C695.011 14.0465 694.947 14.8294 694.947 15.752V19.6621C694.947 20.4069 694.99 21.0628 695.074 21.6299C695.159 22.1969 695.286 22.6836 695.455 23.0898C695.624 23.4876 695.827 23.8177 696.064 24.0801C696.31 24.334 696.589 24.5202 696.902 24.6387C697.224 24.7572 697.575 24.8164 697.956 24.8164C698.438 24.8164 698.866 24.7233 699.238 24.5371C699.611 24.3509 699.924 24.0547 700.178 23.6484C700.432 23.2337 700.622 22.6963 700.749 22.0361C700.876 21.376 700.939 20.5846 700.939 19.6621Z" fill="#333B41"/>
<path d="M788.078 15.2597C787.662 14.8701 787.247 14.5844 786.857 14.3766C786.468 14.1948 786.026 14.0909 785.532 14.0909C784.961 14.0909 784.545 14.2208 784.26 14.4545C783.974 14.6883 783.818 15.0779 783.818 15.5974C783.818 15.961 783.974 16.2987 784.286 16.5325C784.597 16.7922 784.961 17.026 785.429 17.2597C785.896 17.4935 786.39 17.7273 786.909 17.987C787.429 18.2468 787.922 18.5325 788.39 18.8961C788.857 19.2597 789.221 19.6753 789.532 20.1948C789.844 20.7143 790 21.3377 790 22.0649C790 23.1818 789.688 24.1429 789.091 24.9481C788.494 25.7532 787.558 26.2727 786.364 26.5584V29H784.104V26.6623C783.429 26.5844 782.701 26.4026 781.948 26.0909C781.195 25.7792 780.545 25.3896 780 24.8961L781.506 22.5844C782.104 23.026 782.675 23.3636 783.195 23.5974C783.74 23.8312 784.286 23.9351 784.831 23.9351C785.481 23.9351 785.974 23.8052 786.26 23.5455C786.571 23.2857 786.727 22.8701 786.727 22.3247C786.727 21.9091 786.571 21.5714 786.26 21.2857C785.948 21 785.584 20.7403 785.117 20.4805C784.649 20.2208 784.156 19.961 783.636 19.7013C783.117 19.4416 782.623 19.1299 782.156 18.7662C781.688 18.4026 781.325 17.987 781.013 17.4935C780.701 17 780.545 16.4286 780.545 15.7273C780.545 14.5844 780.857 13.6234 781.481 12.8701C782.104 12.1169 782.987 11.6234 784.078 11.4156V9H786.338V11.3636C787.091 11.4675 787.74 11.7013 788.312 12.039C788.883 12.3766 789.377 12.7922 789.844 13.2857L788.078 15.2597Z" fill="#333B41"/>
<path d="M794.209 17.834L795.212 8.51562H805.14V11.1816H797.776L797.269 15.5996C798.123 15.1087 799.088 14.8633 800.163 14.8633C801.924 14.8633 803.29 15.4261 804.264 16.5518C805.245 17.6774 805.736 19.1924 805.736 21.0967C805.736 22.9756 805.195 24.4736 804.111 25.5908C803.028 26.6995 801.543 27.2539 799.655 27.2539C797.963 27.2539 796.558 26.7757 795.44 25.8193C794.332 24.8545 793.731 23.585 793.638 22.0107H796.621C796.74 22.9079 797.061 23.5977 797.586 24.0801C798.111 24.554 798.796 24.791 799.643 24.791C800.59 24.791 801.327 24.4525 801.852 23.7754C802.385 23.0983 802.651 22.1758 802.651 21.0078C802.651 19.8822 802.359 18.9935 801.775 18.3418C801.191 17.6816 800.387 17.3516 799.363 17.3516C798.805 17.3516 798.331 17.4277 797.941 17.5801C797.552 17.724 797.129 18.0117 796.672 18.4434L794.209 17.834ZM820.209 19.2178C820.209 21.8753 819.71 23.8812 818.711 25.2354C817.721 26.5811 816.21 27.2539 814.179 27.2539C812.181 27.2539 810.675 26.598 809.659 25.2861C808.652 23.9658 808.136 22.015 808.11 19.4336V16.2344C808.11 13.5768 808.605 11.5837 809.596 10.2549C810.594 8.92611 812.114 8.26172 814.153 8.26172C816.176 8.26172 817.683 8.90918 818.673 10.2041C819.672 11.499 820.184 13.4372 820.209 16.0186V19.2178ZM817.124 15.7646C817.124 14.0296 816.887 12.7601 816.413 11.9561C815.939 11.1436 815.186 10.7373 814.153 10.7373C813.146 10.7373 812.406 11.1224 811.932 11.8926C811.458 12.6543 811.208 13.8477 811.183 15.4727V19.6621C811.183 21.3887 811.424 22.6751 811.906 23.5215C812.389 24.3678 813.146 24.791 814.179 24.791C815.169 24.791 815.901 24.4017 816.375 23.623C816.849 22.8359 817.099 21.6087 817.124 19.9414V15.7646Z" fill="#333B41"/>
<path d="M918.078 15.2597C917.662 14.8701 917.247 14.5844 916.857 14.3766C916.468 14.1948 916.026 14.0909 915.532 14.0909C914.961 14.0909 914.545 14.2208 914.26 14.4545C913.974 14.6883 913.818 15.0779 913.818 15.5974C913.818 15.961 913.974 16.2987 914.286 16.5325C914.597 16.7922 914.961 17.026 915.429 17.2597C915.896 17.4935 916.39 17.7273 916.909 17.987C917.429 18.2468 917.922 18.5325 918.39 18.8961C918.857 19.2597 919.221 19.6753 919.532 20.1948C919.844 20.7143 920 21.3377 920 22.0649C920 23.1818 919.688 24.1429 919.091 24.9481C918.494 25.7532 917.558 26.2727 916.364 26.5584V29H914.104V26.6623C913.429 26.5844 912.701 26.4026 911.948 26.0909C911.195 25.7792 910.545 25.3896 910 24.8961L911.506 22.5844C912.104 23.026 912.675 23.3636 913.195 23.5974C913.74 23.8312 914.286 23.9351 914.831 23.9351C915.481 23.9351 915.974 23.8052 916.26 23.5455C916.571 23.2857 916.727 22.8701 916.727 22.3247C916.727 21.9091 916.571 21.5714 916.26 21.2857C915.948 21 915.584 20.7403 915.117 20.4805C914.649 20.2208 914.156 19.961 913.636 19.7013C913.117 19.4416 912.623 19.1299 912.156 18.7662C911.688 18.4026 911.325 17.987 911.013 17.4935C910.701 17 910.545 16.4286 910.545 15.7273C910.545 14.5844 910.857 13.6234 911.481 12.8701C912.104 12.1169 912.987 11.6234 914.078 11.4156V9H916.338V11.3636C917.091 11.4675 917.74 11.7013 918.312 12.039C918.883 12.3766 919.377 12.7922 919.844 13.2857L918.078 15.2597Z" fill="#333B41"/>
<path d="M935.812 27H923.384V24.8799L929.541 18.1641C930.43 17.1738 931.06 16.3486 931.433 15.6885C931.813 15.0199 932.004 14.3512 932.004 13.6826C932.004 12.8024 931.754 12.0915 931.255 11.5498C930.764 11.0081 930.1 10.7373 929.262 10.7373C928.263 10.7373 927.489 11.042 926.938 11.6514C926.388 12.2607 926.113 13.0944 926.113 14.1523H923.028C923.028 13.0267 923.282 12.0153 923.79 11.1182C924.306 10.2126 925.038 9.51009 925.986 9.01074C926.943 8.51139 928.043 8.26172 929.287 8.26172C931.081 8.26172 932.495 8.71452 933.527 9.62012C934.568 10.5173 935.089 11.7614 935.089 13.3525C935.089 14.2751 934.826 15.2441 934.302 16.2598C933.785 17.2669 932.935 18.4137 931.75 19.7002L927.23 24.5371H935.812V27ZM938.986 17.834L939.989 8.51562H949.917V11.1816H942.554L942.046 15.5996C942.901 15.1087 943.866 14.8633 944.94 14.8633C946.701 14.8633 948.068 15.4261 949.041 16.5518C950.023 17.6774 950.514 19.1924 950.514 21.0967C950.514 22.9756 949.972 24.4736 948.889 25.5908C947.805 26.6995 946.32 27.2539 944.433 27.2539C942.74 27.2539 941.335 26.7757 940.218 25.8193C939.109 24.8545 938.508 23.585 938.415 22.0107H941.398C941.517 22.9079 941.839 23.5977 942.363 24.0801C942.888 24.554 943.574 24.791 944.42 24.791C945.368 24.791 946.104 24.4525 946.629 23.7754C947.162 23.0983 947.429 22.1758 947.429 21.0078C947.429 19.8822 947.137 18.9935 946.553 18.3418C945.969 17.6816 945.165 17.3516 944.141 17.3516C943.582 17.3516 943.108 17.4277 942.719 17.5801C942.329 17.724 941.906 18.0117 941.449 18.4434L938.986 17.834Z" fill="#333B41"/>
<path d="M138.078 15.2597C137.662 14.8701 137.247 14.5844 136.857 14.3766C136.468 14.1948 136.026 14.0909 135.532 14.0909C134.961 14.0909 134.545 14.2208 134.26 14.4545C133.974 14.6883 133.818 15.0779 133.818 15.5974C133.818 15.961 133.974 16.2987 134.286 16.5325C134.597 16.7922 134.961 17.026 135.429 17.2597C135.896 17.4935 136.39 17.7273 136.909 17.987C137.429 18.2468 137.922 18.5325 138.39 18.8961C138.857 19.2597 139.221 19.6753 139.532 20.1948C139.844 20.7143 140 21.3377 140 22.0649C140 23.1818 139.688 24.1429 139.091 24.9481C138.494 25.7532 137.558 26.2727 136.364 26.5584V29H134.104V26.6623C133.429 26.5844 132.701 26.4026 131.948 26.0909C131.195 25.7792 130.545 25.3896 130 24.8961L131.506 22.5844C132.104 23.026 132.675 23.3636 133.195 23.5974C133.74 23.8312 134.286 23.9351 134.831 23.9351C135.481 23.9351 135.974 23.8052 136.26 23.5455C136.571 23.2857 136.727 22.8701 136.727 22.3247C136.727 21.9091 136.571 21.5714 136.26 21.2857C135.948 21 135.584 20.7403 135.117 20.4805C134.649 20.2208 134.156 19.961 133.636 19.7013C133.117 19.4416 132.623 19.1299 132.156 18.7662C131.688 18.4026 131.325 17.987 131.013 17.4935C130.701 17 130.545 16.4286 130.545 15.7273C130.545 14.5844 130.857 13.6234 131.481 12.8701C132.104 12.1169 132.987 11.6234 134.078 11.4156V9H136.338V11.3636C137.091 11.4675 137.74 11.7013 138.312 12.039C138.883 12.3766 139.377 12.7922 139.844 13.2857L138.078 15.2597Z" fill="#333B41"/>
<path d="M155.787 24.5625V27H143.396V24.9053L149.414 18.3418C150.074 17.597 150.595 16.9538 150.976 16.4121C151.356 15.8704 151.623 15.3838 151.775 14.9521C151.936 14.512 152.017 14.0846 152.017 13.6699C152.017 13.0859 151.907 12.5739 151.687 12.1338C151.475 11.6852 151.162 11.334 150.747 11.0801C150.332 10.8177 149.829 10.6865 149.236 10.6865C148.551 10.6865 147.975 10.8346 147.51 11.1309C147.044 11.4271 146.693 11.8376 146.456 12.3623C146.219 12.8786 146.101 13.471 146.101 14.1396H143.041C143.041 13.0648 143.286 12.083 143.777 11.1943C144.268 10.2972 144.979 9.58626 145.91 9.06152C146.841 8.52832 147.963 8.26172 149.274 8.26172C150.51 8.26172 151.56 8.46908 152.423 8.88379C153.286 9.2985 153.942 9.88672 154.391 10.6484C154.848 11.4102 155.076 12.3115 155.076 13.3525C155.076 13.9281 154.983 14.4993 154.797 15.0664C154.611 15.6335 154.344 16.2005 153.997 16.7676C153.659 17.3262 153.257 17.889 152.791 18.4561C152.326 19.0146 151.813 19.5817 151.255 20.1572L147.256 24.5625H155.787ZM170.222 16.209V19.2305C170.222 20.6777 170.078 21.9134 169.79 22.9375C169.511 23.9531 169.104 24.7783 168.571 25.4131C168.038 26.0479 167.399 26.5133 166.654 26.8096C165.918 27.1058 165.093 27.2539 164.179 27.2539C163.451 27.2539 162.774 27.1608 162.147 26.9746C161.53 26.7884 160.971 26.4964 160.472 26.0986C159.972 25.7008 159.545 25.1888 159.189 24.5625C158.842 23.9277 158.572 23.1702 158.377 22.29C158.191 21.4098 158.098 20.39 158.098 19.2305V16.209C158.098 14.7533 158.242 13.526 158.529 12.5273C158.817 11.5202 159.228 10.7035 159.761 10.0771C160.294 9.44238 160.929 8.98112 161.665 8.69336C162.41 8.4056 163.239 8.26172 164.153 8.26172C164.89 8.26172 165.567 8.35482 166.185 8.54102C166.811 8.71875 167.369 9.00228 167.86 9.3916C168.36 9.78092 168.783 10.2887 169.13 10.915C169.485 11.5329 169.756 12.2819 169.942 13.1621C170.129 14.0339 170.222 15.0495 170.222 16.209ZM167.162 19.6621V15.752C167.162 15.0156 167.12 14.3682 167.035 13.8096C166.951 13.2425 166.824 12.7643 166.654 12.375C166.493 11.9772 166.29 11.6556 166.045 11.4102C165.799 11.1562 165.52 10.9743 165.207 10.8643C164.894 10.7458 164.543 10.6865 164.153 10.6865C163.679 10.6865 163.256 10.7796 162.884 10.9658C162.511 11.1436 162.198 11.4313 161.944 11.8291C161.69 12.2269 161.496 12.7516 161.36 13.4033C161.233 14.0465 161.17 14.8294 161.17 15.752V19.6621C161.17 20.4069 161.212 21.0628 161.297 21.6299C161.382 22.1969 161.508 22.6836 161.678 23.0898C161.847 23.4876 162.05 23.8177 162.287 24.0801C162.533 24.334 162.812 24.5202 163.125 24.6387C163.447 24.7572 163.798 24.8164 164.179 24.8164C164.661 24.8164 165.089 24.7233 165.461 24.5371C165.833 24.3509 166.146 24.0547 166.4 23.6484C166.654 23.2337 166.845 22.6963 166.972 22.0361C167.099 21.376 167.162 20.5846 167.162 19.6621ZM184.999 16.209V19.2305C184.999 20.6777 184.855 21.9134 184.567 22.9375C184.288 23.9531 183.882 24.7783 183.349 25.4131C182.815 26.0479 182.176 26.5133 181.432 26.8096C180.695 27.1058 179.87 27.2539 178.956 27.2539C178.228 27.2539 177.551 27.1608 176.925 26.9746C176.307 26.7884 175.748 26.4964 175.249 26.0986C174.75 25.7008 174.322 25.1888 173.967 24.5625C173.62 23.9277 173.349 23.1702 173.154 22.29C172.968 21.4098 172.875 20.39 172.875 19.2305V16.209C172.875 14.7533 173.019 13.526 173.307 12.5273C173.594 11.5202 174.005 10.7035 174.538 10.0771C175.071 9.44238 175.706 8.98112 176.442 8.69336C177.187 8.4056 178.017 8.26172 178.931 8.26172C179.667 8.26172 180.344 8.35482 180.962 8.54102C181.588 8.71875 182.147 9.00228 182.638 9.3916C183.137 9.78092 183.56 10.2887 183.907 10.915C184.263 11.5329 184.534 12.2819 184.72 13.1621C184.906 14.0339 184.999 15.0495 184.999 16.209ZM181.939 19.6621V15.752C181.939 15.0156 181.897 14.3682 181.812 13.8096C181.728 13.2425 181.601 12.7643 181.432 12.375C181.271 11.9772 181.068 11.6556 180.822 11.4102C180.577 11.1562 180.298 10.9743 179.984 10.8643C179.671 10.7458 179.32 10.6865 178.931 10.6865C178.457 10.6865 178.034 10.7796 177.661 10.9658C177.289 11.1436 176.976 11.4313 176.722 11.8291C176.468 12.2269 176.273 12.7516 176.138 13.4033C176.011 14.0465 175.947 14.8294 175.947 15.752V19.6621C175.947 20.4069 175.99 21.0628 176.074 21.6299C176.159 22.1969 176.286 22.6836 176.455 23.0898C176.624 23.4876 176.827 23.8177 177.064 24.0801C177.31 24.334 177.589 24.5202 177.902 24.6387C178.224 24.7572 178.575 24.8164 178.956 24.8164C179.438 24.8164 179.866 24.7233 180.238 24.5371C180.611 24.3509 180.924 24.0547 181.178 23.6484C181.432 23.2337 181.622 22.6963 181.749 22.0361C181.876 21.376 181.939 20.5846 181.939 19.6621ZM199.776 16.209V19.2305C199.776 20.6777 199.632 21.9134 199.345 22.9375C199.065 23.9531 198.659 24.7783 198.126 25.4131C197.593 26.0479 196.954 26.5133 196.209 26.8096C195.473 27.1058 194.647 27.2539 193.733 27.2539C193.006 27.2539 192.328 27.1608 191.702 26.9746C191.084 26.7884 190.526 26.4964 190.026 26.0986C189.527 25.7008 189.1 25.1888 188.744 24.5625C188.397 23.9277 188.126 23.1702 187.932 22.29C187.745 21.4098 187.652 20.39 187.652 19.2305V16.209C187.652 14.7533 187.796 13.526 188.084 12.5273C188.372 11.5202 188.782 10.7035 189.315 10.0771C189.849 9.44238 190.483 8.98112 191.22 8.69336C191.965 8.4056 192.794 8.26172 193.708 8.26172C194.444 8.26172 195.121 8.35482 195.739 8.54102C196.366 8.71875 196.924 9.00228 197.415 9.3916C197.914 9.78092 198.338 10.2887 198.685 10.915C199.04 11.5329 199.311 12.2819 199.497 13.1621C199.683 14.0339 199.776 15.0495 199.776 16.209ZM196.717 19.6621V15.752C196.717 15.0156 196.674 14.3682 196.59 13.8096C196.505 13.2425 196.378 12.7643 196.209 12.375C196.048 11.9772 195.845 11.6556 195.6 11.4102C195.354 11.1562 195.075 10.9743 194.762 10.8643C194.449 10.7458 194.097 10.6865 193.708 10.6865C193.234 10.6865 192.811 10.7796 192.438 10.9658C192.066 11.1436 191.753 11.4313 191.499 11.8291C191.245 12.2269 191.05 12.7516 190.915 13.4033C190.788 14.0465 190.725 14.8294 190.725 15.752V19.6621C190.725 20.4069 190.767 21.0628 190.852 21.6299C190.936 22.1969 191.063 22.6836 191.232 23.0898C191.402 23.4876 191.605 23.8177 191.842 24.0801C192.087 24.334 192.367 24.5202 192.68 24.6387C193.001 24.7572 193.353 24.8164 193.733 24.8164C194.216 24.8164 194.643 24.7233 195.016 24.5371C195.388 24.3509 195.701 24.0547 195.955 23.6484C196.209 23.2337 196.399 22.6963 196.526 22.0361C196.653 21.376 196.717 20.5846 196.717 19.6621Z" fill="#333B41"/>
<path d="M8.07792 15.2597C7.66234 14.8701 7.24675 14.5844 6.85714 14.3766C6.46753 14.1948 6.02597 14.0909 5.53247 14.0909C4.96104 14.0909 4.54545 14.2208 4.25974 14.4545C3.97403 14.6883 3.81818 15.0779 3.81818 15.5974C3.81818 15.961 3.97403 16.2987 4.28571 16.5325C4.5974 16.7922 4.96104 17.026 5.42857 17.2597C5.8961 17.4935 6.38961 17.7273 6.90909 17.987C7.42857 18.2468 7.92208 18.5325 8.38961 18.8961C8.85714 19.2597 9.22078 19.6753 9.53247 20.1948C9.84416 20.7143 10 21.3377 10 22.0649C10 23.1818 9.68831 24.1429 9.09091 24.9481C8.49351 25.7532 7.55844 26.2727 6.36364 26.5584V29H4.1039V26.6623C3.42857 26.5844 2.7013 26.4026 1.94805 26.0909C1.19481 25.7792 0.545455 25.3896 0 24.8961L1.50649 22.5844C2.1039 23.026 2.67533 23.3636 3.19481 23.5974C3.74026 23.8312 4.28571 23.9351 4.83117 23.9351C5.48052 23.9351 5.97403 23.8052 6.25974 23.5455C6.57143 23.2857 6.72727 22.8701 6.72727 22.3247C6.72727 21.9091 6.57143 21.5714 6.25974 21.2857C5.94805 21 5.58442 20.7403 5.11688 20.4805C4.64935 20.2208 4.15584 19.961 3.63636 19.7013C3.11688 19.4416 2.62338 19.1299 2.15584 18.7662C1.68831 18.4026 1.32468 17.987 1.01299 17.4935C0.701299 17 0.545455 16.4286 0.545455 15.7273C0.545455 14.5844 0.857143 13.6234 1.48052 12.8701C2.1039 12.1169 2.98701 11.6234 4.07792 11.4156V9H6.33766V11.3636C7.09091 11.4675 7.74026 11.7013 8.31169 12.039C8.88312 12.3766 9.37662 12.7922 9.84416 13.2857L8.07792 15.2597Z" fill="#333B41"/>
<path d="M16.6084 18.4053L14.1709 17.8086L15.1738 8.51562H25.1396V11.1055H17.7129L17.2051 15.6377C17.4928 15.4684 17.8906 15.3034 18.3984 15.1426C18.9062 14.9733 19.486 14.8887 20.1377 14.8887C21.0094 14.8887 21.7881 15.0326 22.4736 15.3203C23.1676 15.5996 23.7559 16.0101 24.2383 16.5518C24.7207 17.085 25.0889 17.7367 25.3428 18.5068C25.5967 19.2686 25.7236 20.1276 25.7236 21.084C25.7236 21.9388 25.5967 22.7386 25.3428 23.4834C25.0973 24.2282 24.7249 24.8841 24.2256 25.4512C23.7262 26.0182 23.0957 26.4626 22.334 26.7842C21.5807 27.0973 20.6878 27.2539 19.6553 27.2539C18.8851 27.2539 18.1445 27.1439 17.4336 26.9238C16.7311 26.6953 16.1006 26.361 15.542 25.9209C14.9834 25.4723 14.5348 24.9222 14.1963 24.2705C13.8577 23.6104 13.6631 22.8529 13.6123 21.998H16.6084C16.6846 22.599 16.8496 23.111 17.1035 23.5342C17.3659 23.9489 17.7129 24.2663 18.1445 24.4863C18.5762 24.7064 19.0755 24.8164 19.6426 24.8164C20.1589 24.8164 20.6032 24.7275 20.9756 24.5498C21.348 24.3636 21.6569 24.1012 21.9023 23.7627C22.1562 23.4157 22.3424 23.0094 22.4609 22.5439C22.5879 22.0785 22.6514 21.5622 22.6514 20.9951C22.6514 20.4535 22.5794 19.9583 22.4355 19.5098C22.3001 19.0612 22.0928 18.6719 21.8135 18.3418C21.5426 18.0117 21.1999 17.7578 20.7852 17.5801C20.3704 17.3939 19.8923 17.3008 19.3506 17.3008C18.6227 17.3008 18.0641 17.4066 17.6748 17.6182C17.2939 17.8298 16.9385 18.0921 16.6084 18.4053ZM40.2217 16.209V19.2305C40.2217 20.6777 40.0778 21.9134 39.79 22.9375C39.5107 23.9531 39.1045 24.7783 38.5713 25.4131C38.0381 26.0479 37.3991 26.5133 36.6543 26.8096C35.918 27.1058 35.0928 27.2539 34.1787 27.2539C33.4508 27.2539 32.7738 27.1608 32.1475 26.9746C31.5296 26.7884 30.971 26.4964 30.4717 26.0986C29.9723 25.7008 29.5449 25.1888 29.1895 24.5625C28.8424 23.9277 28.5716 23.1702 28.377 22.29C28.1908 21.4098 28.0977 20.39 28.0977 19.2305V16.209C28.0977 14.7533 28.2415 13.526 28.5293 12.5273C28.8171 11.5202 29.2275 10.7035 29.7607 10.0771C30.2939 9.44238 30.9287 8.98112 31.665 8.69336C32.4098 8.4056 33.2393 8.26172 34.1533 8.26172C34.8896 8.26172 35.5667 8.35482 36.1846 8.54102C36.8109 8.71875 37.3695 9.00228 37.8604 9.3916C38.3597 9.78092 38.7829 10.2887 39.1299 10.915C39.4854 11.5329 39.7562 12.2819 39.9424 13.1621C40.1286 14.0339 40.2217 15.0495 40.2217 16.209ZM37.1621 19.6621V15.752C37.1621 15.0156 37.1198 14.3682 37.0352 13.8096C36.9505 13.2425 36.8236 12.7643 36.6543 12.375C36.4935 11.9772 36.2904 11.6556 36.0449 11.4102C35.7995 11.1562 35.5202 10.9743 35.207 10.8643C34.8939 10.7458 34.5426 10.6865 34.1533 10.6865C33.6794 10.6865 33.2562 10.7796 32.8838 10.9658C32.5114 11.1436 32.1982 11.4313 31.9443 11.8291C31.6904 12.2269 31.4958 12.7516 31.3604 13.4033C31.2334 14.0465 31.1699 14.8294 31.1699 15.752V19.6621C31.1699 20.4069 31.2122 21.0628 31.2969 21.6299C31.3815 22.1969 31.5085 22.6836 31.6777 23.0898C31.847 23.4876 32.0501 23.8177 32.2871 24.0801C32.5326 24.334 32.8118 24.5202 33.125 24.6387C33.4466 24.7572 33.7979 24.8164 34.1787 24.8164C34.6611 24.8164 35.0885 24.7233 35.4609 24.5371C35.8333 24.3509 36.1465 24.0547 36.4004 23.6484C36.6543 23.2337 36.8447 22.6963 36.9717 22.0361C37.0986 21.376 37.1621 20.5846 37.1621 19.6621ZM54.999 16.209V19.2305C54.999 20.6777 54.8551 21.9134 54.5674 22.9375C54.2881 23.9531 53.8818 24.7783 53.3486 25.4131C52.8154 26.0479 52.1764 26.5133 51.4316 26.8096C50.6953 27.1058 49.8701 27.2539 48.9561 27.2539C48.2282 27.2539 47.5511 27.1608 46.9248 26.9746C46.307 26.7884 45.7484 26.4964 45.249 26.0986C44.7497 25.7008 44.3223 25.1888 43.9668 24.5625C43.6198 23.9277 43.349 23.1702 43.1543 22.29C42.9681 21.4098 42.875 20.39 42.875 19.2305V16.209C42.875 14.7533 43.0189 13.526 43.3066 12.5273C43.5944 11.5202 44.0049 10.7035 44.5381 10.0771C45.0713 9.44238 45.7061 8.98112 46.4424 8.69336C47.1872 8.4056 48.0166 8.26172 48.9307 8.26172C49.667 8.26172 50.3441 8.35482 50.9619 8.54102C51.5882 8.71875 52.1468 9.00228 52.6377 9.3916C53.137 9.78092 53.5602 10.2887 53.9072 10.915C54.2627 11.5329 54.5335 12.2819 54.7197 13.1621C54.9059 14.0339 54.999 15.0495 54.999 16.209ZM51.9395 19.6621V15.752C51.9395 15.0156 51.8971 14.3682 51.8125 13.8096C51.7279 13.2425 51.6009 12.7643 51.4316 12.375C51.2708 11.9772 51.0677 11.6556 50.8223 11.4102C50.5768 11.1562 50.2975 10.9743 49.9844 10.8643C49.6712 10.7458 49.32 10.6865 48.9307 10.6865C48.4567 10.6865 48.0335 10.7796 47.6611 10.9658C47.2887 11.1436 46.9756 11.4313 46.7217 11.8291C46.4678 12.2269 46.2731 12.7516 46.1377 13.4033C46.0107 14.0465 45.9473 14.8294 45.9473 15.752V19.6621C45.9473 20.4069 45.9896 21.0628 46.0742 21.6299C46.1589 22.1969 46.2858 22.6836 46.4551 23.0898C46.6243 23.4876 46.8275 23.8177 47.0645 24.0801C47.3099 24.334 47.5892 24.5202 47.9023 24.6387C48.224 24.7572 48.5752 24.8164 48.9561 24.8164C49.4385 24.8164 49.8659 24.7233 50.2383 24.5371C50.6107 24.3509 50.9238 24.0547 51.1777 23.6484C51.4316 23.2337 51.6221 22.6963 51.749 22.0361C51.876 21.376 51.9395 20.5846 51.9395 19.6621ZM69.7764 16.209V19.2305C69.7764 20.6777 69.6325 21.9134 69.3447 22.9375C69.0654 23.9531 68.6592 24.7783 68.126 25.4131C67.5928 26.0479 66.9538 26.5133 66.209 26.8096C65.4727 27.1058 64.6475 27.2539 63.7334 27.2539C63.0055 27.2539 62.3285 27.1608 61.7021 26.9746C61.0843 26.7884 60.5257 26.4964 60.0264 26.0986C59.527 25.7008 59.0996 25.1888 58.7441 24.5625C58.3971 23.9277 58.1263 23.1702 57.9316 22.29C57.7454 21.4098 57.6523 20.39 57.6523 19.2305V16.209C57.6523 14.7533 57.7962 13.526 58.084 12.5273C58.3717 11.5202 58.7822 10.7035 59.3154 10.0771C59.8486 9.44238 60.4834 8.98112 61.2197 8.69336C61.9645 8.4056 62.7939 8.26172 63.708 8.26172C64.4443 8.26172 65.1214 8.35482 65.7393 8.54102C66.3656 8.71875 66.9242 9.00228 67.415 9.3916C67.9144 9.78092 68.3376 10.2887 68.6846 10.915C69.04 11.5329 69.3109 12.2819 69.4971 13.1621C69.6833 14.0339 69.7764 15.0495 69.7764 16.209ZM66.7168 19.6621V15.752C66.7168 15.0156 66.6745 14.3682 66.5898 13.8096C66.5052 13.2425 66.3783 12.7643 66.209 12.375C66.0482 11.9772 65.8451 11.6556 65.5996 11.4102C65.3542 11.1562 65.0749 10.9743 64.7617 10.8643C64.4486 10.7458 64.0973 10.6865 63.708 10.6865C63.234 10.6865 62.8109 10.7796 62.4385 10.9658C62.0661 11.1436 61.7529 11.4313 61.499 11.8291C61.2451 12.2269 61.0505 12.7516 60.915 13.4033C60.7881 14.0465 60.7246 14.8294 60.7246 15.752V19.6621C60.7246 20.4069 60.7669 21.0628 60.8516 21.6299C60.9362 22.1969 61.0632 22.6836 61.2324 23.0898C61.4017 23.4876 61.6048 23.8177 61.8418 24.0801C62.0872 24.334 62.3665 24.5202 62.6797 24.6387C63.0013 24.7572 63.3525 24.8164 63.7334 24.8164C64.2158 24.8164 64.6432 24.7233 65.0156 24.5371C65.388 24.3509 65.7012 24.0547 65.9551 23.6484C66.209 23.2337 66.3994 22.6963 66.5264 22.0361C66.6533 21.376 66.7168 20.5846 66.7168 19.6621Z" fill="#333B41"/>
</svg>
