<svg width="31" height="24" viewBox="0 0 31 24" fill="none" xmlns="http://www.w3.org/2000/svg">
<path fill-rule="evenodd" clip-rule="evenodd" d="M16.7327 0.971864C16.6054 0.973394 16.4783 0.974925 16.3513 0.97941C16.0606 0.986456 15.7706 0.998217 15.4817 1.01411C12.9925 1.15137 10.4899 1.60542 8.17479 2.53127C5.85666 3.45831 3.73992 4.86671 2.21667 6.73142C1.52962 7.57255 0.916994 8.56641 0.76728 9.7152C0.741431 9.91314 0.730497 10.1142 0.735468 10.3163L0.791126 13.7393L0.791667 13.7726C0.798066 14.1661 0.868116 14.5637 1.01372 14.9499C1.23254 15.5302 1.62058 16.0694 2.17671 16.4728C2.65868 16.8225 3.21383 17.0331 3.76381 17.1536C4.31124 17.2735 4.84954 17.3049 5.35789 17.3069C6.37344 17.311 7.28308 17.2146 8.06871 17.3215C9.47205 17.5124 10.7823 18.3489 11.9807 19.3335C13.1863 20.324 14.3735 21.51 15.9742 22.3442C17.922 23.3594 20.2622 23.6805 22.4578 23.2891C24.6508 22.8982 26.6456 21.8144 28.0829 20.2972C29.5932 18.703 30.4675 16.655 30.525 14.5629C30.5284 14.4426 30.5281 14.3225 30.5258 14.2023L30.4696 10.7462C30.4407 8.7686 29.6864 6.81531 28.3328 5.24728C26.8392 3.51709 24.7051 2.33405 22.4366 1.68056C20.5804 1.14585 18.6448 0.954207 16.7335 0.972902L16.7327 0.971864ZM16.8029 2.42057C16.9383 2.41894 17.0737 2.42026 17.2088 2.4213C18.8311 2.43726 20.4342 2.62443 21.943 3.05908C23.9492 3.63701 25.8 4.67992 27.0535 6.13187C28.2499 7.5178 28.8988 9.29599 28.8506 11.0473C28.8025 12.7988 28.0575 14.5447 26.7917 15.8808C25.5878 17.1517 23.896 18.0665 22.0833 18.3896C20.2732 18.7123 18.3148 18.4397 16.7302 17.6138C15.4164 16.9291 14.2966 15.8391 13.0171 14.7879C11.7305 13.7309 10.1827 12.673 8.25325 12.4105C7.17149 12.2634 6.17942 12.3831 5.30647 12.3796C4.87063 12.3778 4.45971 12.3488 4.0897 12.2678C3.72223 12.1873 3.38969 12.052 3.13756 11.869C2.84889 11.6596 2.61884 11.3513 2.4899 11.0094C2.35994 10.6647 2.32358 10.2737 2.37439 9.88386C2.47653 9.09996 2.9278 8.31569 3.52307 7.58697C4.85316 5.95865 6.74081 4.69142 8.83601 3.85356C10.9342 3.01445 13.2463 2.58837 15.583 2.45952C15.9896 2.43718 16.3966 2.4237 16.8029 2.42059L16.8029 2.42057ZM16.8181 3.80199C16.4408 3.80357 16.0609 3.81732 15.6795 3.83847C13.4883 3.9593 11.3578 4.35876 9.46645 5.11513C7.58384 5.86799 5.91465 7.00056 4.76868 8.40344C4.26089 9.02506 3.96366 9.60945 3.90687 10.0454C3.87926 10.2571 3.90545 10.4456 3.95177 10.5685C3.99503 10.6832 4.07435 10.7713 4.10794 10.7957C4.14136 10.8198 4.26171 10.8834 4.4548 10.9257C4.65532 10.9696 4.94462 10.9964 5.31166 10.9979C6.04867 11.0009 7.11918 10.8589 8.48319 11.0445C10.9143 11.3751 12.6888 12.6441 14.0594 13.7702C15.4094 14.8794 16.465 15.8777 17.5052 16.4199C18.7436 17.0653 20.338 17.2917 21.7805 17.0345C23.2306 16.776 24.6334 16.0223 25.6149 14.9863C26.6475 13.8963 27.2691 12.4383 27.3083 11.0116C27.3476 9.58545 26.8061 8.10281 25.8333 6.97595C24.8089 5.78928 23.2282 4.87996 21.4721 4.3741C20.143 3.99118 18.6958 3.81701 17.1943 3.80247C17.0692 3.80102 16.9438 3.80106 16.8181 3.80198L16.8181 3.80199ZM20.6752 9.69295C21.4034 9.68421 22.1049 9.86851 22.6254 10.2053C23.1459 10.5421 23.4427 11.0038 23.4506 11.4889C23.4585 11.9739 23.1768 12.4426 22.6674 12.7918C22.1581 13.141 21.4629 13.3421 20.7346 13.3508C20.3741 13.3552 20.0162 13.3122 19.6816 13.2242C19.347 13.1363 19.0421 13.0053 18.7844 12.8385C18.5266 12.6717 18.3211 12.4725 18.1795 12.2523C18.0379 12.0321 17.963 11.7951 17.9591 11.5549C17.9552 11.3147 18.0223 11.076 18.1567 10.8525C18.2911 10.6289 18.4901 10.4249 18.7423 10.252C18.9945 10.0791 19.295 9.94071 19.6267 9.8448C19.9583 9.74889 20.3146 9.69728 20.6752 9.69295Z" fill="#EE8383"/>
</svg>
